<svg width="347" height="107" xmlns="http://www.w3.org/2000/svg" viewBox="0 0 347.25 107"><defs><style>.cls-3,.cls-5{fill:none;stroke:#27282d;stroke-width:2.5px}.cls-3{stroke-linecap:round;stroke-miterlimit:10}</style></defs><path d="M184.25 29l9.44-18.57s9.9 18.29 9.46 18.57-9.42 6.63-9.42 6.63zm.08 6.64l9.41 6.59 9.42-6.59-9.42 15.72z" stroke-linecap="square" stroke-linejoin="round" fill="none" stroke="#27282d" stroke-width="2.5"/><path class="cls-3" d="M137.73 72.27h17.45c2 0 3.4 2.33 2.72 4.55l-3.49 11.58a3 3 0 01-2.73 2.26h-19.52m7.7-9.18h-10.87"/><path d="M96.44 38.72l-1.21-.3-.37 1.58h1.58zM112.25 40a1.25 1.25 0 000-2.5zm-10.17-30l-6.83 28.42 2.43.59 6.85-28.45zm-5.64 30h15.81v-2.5H96.44z" fill="#27282d"/><path class="cls-3" d="M106.25 24.24L92.63 29"/><path class="cls-5" d="M14.2 18.3h6.94v6.73H14.2zm-.55 68.24h6.94v6.73h-6.94zM192.68 2.27v52.58h-62.85V107M0 65.93h78.25v40.8m177.07 0V51.84h20.48m49.74 54.89V51.84h-21.56m-48.66 16.53h70.44M271.58 60h37.06m-4.77-40.58v15.51m-13.44-16.61v11.77m-11.49-13v10.1m2.44 32.06a8.29 8.29 0 01-.49-2.78 8.67 8.67 0 0117.34 0 8.29 8.29 0 01-.48 2.78"/><path class="cls-5" d="M275.8 59.63a14 14 0 01-.5-3.68 14.7 14.7 0 0129.39 0 14 14 0 01-.49 3.68M316.87 2v25.66H347"/><path d="M29.82 21.54l8.1-9.39 8.12 9.39m4.36 5.04L51.66 28m-14.3-1.42l1.3 1.42m-14.03-1.42l1.3 1.42m20.11 5.93l-8.12 9.4-8.1-9.4" stroke-miterlimit="10" fill="none" stroke="#27282d" stroke-width="2.5"/></svg>